<svg width="133" height="138" viewBox="0 0 133 138" fill="none" xmlns="http://www.w3.org/2000/svg">
<path d="M14.4265 51.6862C14.1608 52.4859 13.7295 53.0226 13.1327 53.2964C12.5393 53.5601 11.8276 53.554 10.9976 53.2782L5.28846 51.3812C4.45841 51.1054 3.88459 50.6843 3.56697 50.118C3.25273 49.5415 3.22846 48.8534 3.49417 48.0537C3.75988 47.254 4.18944 46.7224 4.78286 46.4587C5.37964 46.1849 6.09305 46.1859 6.92309 46.4617L8.04669 46.835L7.52199 48.4142L6.29211 48.0055C5.63415 47.7869 5.21267 47.9559 5.02768 48.5127C4.84269 49.0694 5.07918 49.4571 5.73714 49.6757L11.674 51.6484C12.3218 51.8636 12.7382 51.6929 12.9232 51.1361C13.1082 50.5794 12.8768 50.1934 12.229 49.9782L10.6043 49.4383L11.129 47.8592L12.6322 48.3587C13.4622 48.6345 14.0344 49.0606 14.3486 49.6371C14.6662 50.2035 14.6922 50.8865 14.4265 51.6862Z" fill="white"/>
<path d="M8.21051 37.3346L9.09892 35.8153L17.3861 40.6612L18.8479 38.1613L20.2291 38.9689L17.8789 42.9882L8.21051 37.3346Z" fill="white"/>
<path d="M15.4207 26.6545L16.5684 25.3201L25.0599 32.6231L23.9123 33.9575L15.4207 26.6545Z" fill="white"/>
<path d="M32.0671 26.1185C31.4068 26.6419 30.752 26.8547 30.1027 26.7569C29.4618 26.6524 28.8697 26.2575 28.3263 25.5721L24.5891 20.8577C24.0458 20.1722 23.7963 19.5056 23.8409 18.8578C23.8938 18.2033 24.2504 17.6144 24.9107 17.0909C25.5711 16.5674 26.2217 16.3579 26.8626 16.4624C27.5119 16.5602 28.1082 16.9519 28.6515 17.6373L29.387 18.5651L28.083 19.5988L27.278 18.5832C26.8472 18.0399 26.402 17.9505 25.9423 18.3149C25.4826 18.6794 25.468 19.1332 25.8987 19.6766L29.7851 24.579C30.2091 25.114 30.651 25.1993 31.1108 24.8348C31.5705 24.4704 31.5883 24.0207 31.1643 23.4857L30.1007 22.1441L31.4047 21.1104L32.3887 22.3517C32.9321 23.0371 33.1773 23.7071 33.1244 24.3615C33.0799 25.0093 32.7275 25.595 32.0671 26.1185Z" fill="white"/>
<path d="M34.8032 10.6436L36.3858 9.87344L38.4511 14.1176L38.4 8.89327L39.9825 8.12314L39.8971 12.7377L44.9121 18.18L43.2576 18.9851L39.7353 15.1475L39.7254 16.736L41.2866 19.9443L39.7041 20.7144L34.8032 10.6436Z" fill="white"/>
<path d="M58.7697 4.78963L56.9388 4.97266L56.7796 3.3806L62.1927 2.83947L62.3518 4.43153L60.5209 4.61456L61.4759 14.1669L59.7246 14.342L58.7697 4.78963Z" fill="white"/>
<path d="M71.7058 14.4236C70.8469 14.3298 70.2161 14.0142 69.8134 13.4767C69.4106 12.9392 69.2579 12.225 69.3551 11.3343L69.9938 5.48108C70.091 4.59037 70.3942 3.926 70.9034 3.48799C71.4126 3.04998 72.0966 2.87783 72.9555 2.97156C73.8144 3.06529 74.4452 3.38092 74.848 3.91845C75.2507 4.45597 75.4035 5.17009 75.3063 6.06081L74.6675 11.9141C74.5703 12.8048 74.2671 13.4691 73.7579 13.9071C73.2488 14.3452 72.5647 14.5173 71.7058 14.4236ZM71.8794 12.833C72.4838 12.899 72.8259 12.5661 72.9058 11.8345L73.5688 5.75854C73.6486 5.02688 73.3864 4.62808 72.7819 4.56212C72.1775 4.49616 71.8354 4.82901 71.7556 5.56067L71.0925 11.6366C71.0127 12.3683 71.275 12.7671 71.8794 12.833Z" fill="white"/>
<path d="M93.3887 8.63898L95.6984 9.81521C96.4778 10.2121 96.9559 10.7189 97.1326 11.3356C97.3094 11.9523 97.192 12.6646 96.7806 13.4725L96.2796 14.4563C95.8682 15.2643 95.3611 15.7781 94.7584 15.9979C94.1557 16.2177 93.4647 16.1291 92.6852 15.7322L91.9438 15.3546L89.8746 19.4181L88.3062 18.6194L93.3887 8.63898ZM93.4113 14.3064C93.6679 14.4371 93.8944 14.4626 94.0905 14.383C94.2962 14.3081 94.4862 14.0996 94.6604 13.7575L95.2631 12.5741C95.4373 12.2319 95.4942 11.9556 95.4337 11.7453C95.3828 11.5398 95.229 11.3717 94.9723 11.241L94.2309 10.8634L92.6699 13.9288L93.4113 14.3064Z" fill="white"/>
<path d="M105.564 15.8892L106.933 16.995L100.902 24.4636L103.155 26.2831L102.149 27.5279L98.5271 24.6026L105.564 15.8892Z" fill="white"/>
<path d="M116.13 25.8537L117.635 27.7028L110.099 36.1871L108.988 34.822L110.511 33.17L110.486 33.1902L109.224 31.639L107.322 32.7744L106.292 31.5086L116.13 25.8537ZM111.534 32.0694L115.333 27.9669L115.313 27.9421L110.534 30.8409L111.534 32.0694Z" fill="white"/>
<path d="M118.513 40.7627L123.305 35.973L124.145 37.6456L121.01 40.5644L121.025 40.593L125.238 39.8186L126.006 41.3482L119.304 42.3353L115.044 44.4765L114.253 42.9039L118.513 40.7627Z" fill="white"/>
<path d="M117.849 85.5022C118.115 84.7025 118.546 84.1658 119.143 83.892C119.736 83.6283 120.448 83.6344 121.278 83.9102L126.987 85.8072C127.817 86.083 128.391 86.5041 128.708 87.0704C129.023 87.6469 129.047 88.335 128.781 89.1347C128.516 89.9344 128.086 90.4661 127.493 90.7297C126.896 91.0035 126.182 91.0025 125.352 90.7267L124.229 90.3534L124.753 88.7743L125.983 89.1829C126.641 89.4015 127.063 89.2325 127.248 88.6758C127.433 88.119 127.196 87.7313 126.538 87.5127L120.601 85.5401C119.954 85.3248 119.537 85.4955 119.352 86.0523C119.167 86.609 119.399 86.995 120.046 87.2103L121.671 87.7501L121.146 89.3292L119.643 88.8297C118.813 88.5539 118.241 88.1278 117.927 87.5513C117.609 86.9849 117.583 86.3019 117.849 85.5022Z" fill="white"/>
<path d="M124.065 99.8538L123.176 101.373L114.889 96.5272L113.427 99.0271L112.046 98.2195L114.396 94.2002L124.065 99.8538Z" fill="white"/>
<path d="M116.855 110.534L115.707 111.868L107.215 104.565L108.363 103.231L116.855 110.534Z" fill="white"/>
<path d="M100.208 111.07C100.869 110.546 101.523 110.334 102.173 110.432C102.814 110.536 103.406 110.931 103.949 111.616L107.686 116.331C108.23 117.016 108.479 117.683 108.435 118.331C108.382 118.985 108.025 119.574 107.365 120.098C106.704 120.621 106.054 120.83 105.413 120.726C104.764 120.628 104.167 120.237 103.624 119.551L102.888 118.623L104.192 117.59L104.997 118.605C105.428 119.149 105.873 119.238 106.333 118.874C106.793 118.509 106.807 118.055 106.377 117.512L102.49 112.609C102.066 112.074 101.624 111.989 101.165 112.354C100.705 112.718 100.687 113.168 101.111 113.703L102.175 115.044L100.871 116.078L99.8867 114.837C99.3433 114.151 99.0981 113.481 99.151 112.827C99.1955 112.179 99.5479 111.593 100.208 111.07Z" fill="white"/>
<path d="M97.4723 126.545L95.8897 127.315L93.8244 123.071L93.8756 128.295L92.293 129.065L92.3784 124.451L87.3634 119.008L89.0179 118.203L92.5402 122.041L92.5502 120.452L90.9889 117.244L92.5715 116.474L97.4723 126.545Z" fill="white"/>
<path d="M73.5057 132.399L75.3366 132.216L75.4958 133.808L70.0827 134.349L69.9236 132.757L71.7545 132.574L70.7995 123.021L72.5508 122.846L73.5057 132.399Z" fill="white"/>
<path d="M60.5696 122.765C61.4285 122.859 62.0593 123.174 62.462 123.712C62.8648 124.249 63.0175 124.963 62.9203 125.854L62.2816 131.707C62.1844 132.598 61.8812 133.262 61.372 133.7C60.8628 134.138 60.1788 134.311 59.3199 134.217C58.461 134.123 57.8302 133.807 57.4274 133.27C57.0247 132.732 56.8719 132.018 56.9691 131.128L57.6079 125.274C57.7051 124.384 58.0083 123.719 58.5175 123.281C59.0266 122.843 59.7107 122.671 60.5696 122.765ZM60.396 124.355C59.7916 124.289 59.4495 124.622 59.3696 125.354L58.7066 131.43C58.6268 132.162 58.889 132.56 59.4934 132.626C60.0979 132.692 60.44 132.359 60.5198 131.628L61.1829 125.552C61.2627 124.82 61.0004 124.421 60.396 124.355Z" fill="white"/>
<path d="M38.8866 128.549L36.5769 127.373C35.7974 126.976 35.3194 126.469 35.1426 125.853C34.9659 125.236 35.0832 124.524 35.4947 123.716L35.9957 122.732C36.4071 121.924 36.9142 121.41 37.5169 121.191C38.1195 120.971 38.8106 121.059 39.59 121.456L40.3314 121.834L42.4007 117.77L43.9691 118.569L38.8866 128.549ZM38.864 122.882C38.6073 122.751 38.3809 122.726 38.1847 122.805C37.9791 122.88 37.7891 123.089 37.6148 123.431L37.0122 124.614C36.8379 124.957 36.7811 125.233 36.8415 125.443C36.8925 125.649 37.0463 125.817 37.3029 125.947L38.0443 126.325L39.6054 123.26L38.864 122.882Z" fill="white"/>
<path d="M26.7116 121.299L25.3424 120.193L31.3739 112.725L29.1209 110.905L30.1261 109.66L33.7484 112.586L26.7116 121.299Z" fill="white"/>
<path d="M16.1455 111.335L14.6407 109.486L22.1762 101.001L23.2871 102.366L21.7642 104.018L21.789 103.998L23.0514 105.549L24.9535 104.414L25.9837 105.68L16.1455 111.335ZM20.7414 105.119L16.9425 109.221L16.9627 109.246L21.7412 106.348L20.7414 105.119Z" fill="white"/>
<path d="M13.762 96.4257L8.97069 101.215L8.13004 99.5428L11.2652 96.624L11.2508 96.5955L7.0379 97.3698L6.26909 95.8402L12.9717 94.8531L17.2319 92.7119L18.0222 94.2845L13.762 96.4257Z" fill="white"/>
<circle cx="7" cy="73" r="2" fill="white"/>
<circle cx="124" cy="65" r="2" fill="white"/>
<path id="rotatedPath" d="M79 69L56.5 81.9904L56.5 56.0096L79 69Z" fill="white"/>
</svg>
