<svg xmlns="http://www.w3.org/2000/svg" width="250" height="44" viewBox="0 0 250 44" fill="none">
  <path d="M132.662 8.26364C132.636 8.2506 132.609 8.22454 132.583 8.2115C132.557 8.19847 132.518 8.17241 132.492 8.15937C132.375 8.10724 132.258 8.23757 132.153 8.14634C132.088 8.0942 132.023 8.01601 131.958 7.96387C131.893 7.91174 131.827 7.8596 131.762 7.80747C131.71 7.76837 131.528 7.63804 131.476 7.7423C131.45 7.80747 131.436 7.88567 131.436 7.95084C131.436 8.04207 131.436 8.13331 131.45 8.22454C131.476 8.43307 131.541 8.62857 131.632 8.81104C131.684 8.98047 131.867 8.83711 131.971 8.81104C132.023 8.798 132.088 8.78497 132.14 8.77194C132.166 8.77194 132.205 8.81104 132.218 8.8371C132.258 8.8762 132.297 8.9153 132.349 8.94137C132.427 8.98047 132.505 8.98047 132.583 8.94137C132.623 8.9153 132.649 8.90227 132.675 8.8762C132.701 8.85014 132.714 8.86317 132.74 8.8762C132.844 8.94137 132.935 8.9935 133.04 9.04564C133.066 9.05867 133.118 9.0717 133.131 9.05867C133.157 9.0326 133.131 8.96744 133.131 8.92834C133.092 8.82407 133.066 8.73284 133.053 8.62857C133.027 8.45914 133.066 8.2897 133.157 8.14634C133.183 8.10724 133.261 7.98994 133.209 7.95084C133.17 7.91174 133.079 7.95084 133.04 7.96387C132.922 8.00297 132.818 8.0551 132.714 8.12027C132.701 8.1333 132.688 8.1724 132.701 8.2115C132.701 8.19847 132.714 8.30274 132.662 8.26364ZM123.043 33.9263C122.574 33.9654 122.118 33.9654 121.648 33.9263C121.375 33.8872 121.114 33.809 120.866 33.7177C120.775 33.6786 120.723 33.6395 120.632 33.7959C120.528 33.9914 119.967 35.0471 119.772 35.5294C119.576 36.0116 119.224 36.8848 119.146 37.1976C119.068 37.5104 118.872 37.9796 118.964 37.1194C119.133 36.2201 119.407 35.3469 119.772 34.4997C119.941 34.1478 120.137 33.822 120.358 33.5092C120.397 33.444 120.254 33.3528 120.228 33.3267C120.176 33.2876 120.137 33.2485 120.111 33.1964C120.071 33.1182 120.084 33.0009 120.019 33.0921C119.68 33.5613 119.407 34.0827 119.198 34.6301C119.029 35.0862 118.716 36.181 118.599 36.7284C118.547 37.0152 118.468 37.2889 118.377 37.5626C118.338 37.6799 118.273 37.7841 118.208 37.8884C118.169 37.9275 118.116 37.9796 118.051 38.0318C118.038 38.0318 118.025 38.0448 118.051 38.0448C118.169 38.0187 118.299 38.0318 118.403 38.0709C118.468 38.136 118.481 38.2533 118.299 38.3706C118.182 38.4749 118.077 38.5792 117.973 38.7095C117.869 38.8138 117.673 38.7356 117.66 38.5401C117.66 38.514 117.647 38.527 117.647 38.5401C117.543 38.7356 117.504 38.9571 117.517 39.1787L117.504 39.2308C117.387 39.5176 117.387 39.8304 117.491 40.1171C117.569 40.3126 117.66 40.5081 117.778 40.6906L118.169 40.6775C118.169 40.6775 118.39 41.251 118.638 41.8375C118.807 42.3328 119.211 42.6977 119.706 42.8411C120.202 43.0496 120.749 43.1539 121.284 43.1408C121.609 43.1278 121.74 43.0887 121.766 43.0235C121.87 42.802 121.727 42.7629 121.727 42.7629C121.818 42.5804 121.792 42.3588 121.661 42.2155C121.427 42.0069 121.179 41.8245 120.906 41.6681C120.684 41.3683 120.502 41.0294 120.397 40.6645C120.254 40.2344 120.189 39.7782 120.202 39.3221C120.202 39.309 120.215 39.296 120.228 39.296C120.358 39.2569 120.423 39.1266 120.397 39.0093C120.384 38.9571 120.358 38.905 120.319 38.8659C120.306 38.8398 120.306 38.8659 120.306 38.8789C120.306 38.9311 120.293 38.9832 120.241 38.9962C120.111 39.0614 120.097 38.905 119.967 38.8789C119.798 38.8529 119.746 38.7616 119.863 38.6834C119.941 38.6183 120.045 38.6183 120.137 38.6574C120.176 38.6834 120.215 38.7095 120.241 38.7356C120.241 38.7356 120.254 38.7486 120.254 38.7356C120.254 38.7225 120.254 38.7095 120.267 38.6834C120.319 38.3576 120.41 38.0318 120.554 37.732C121.101 36.7284 121.727 35.764 122.443 34.8777C122.848 34.3694 123.03 34.1869 123.108 34.0957C123.199 33.9784 123.291 33.9002 123.043 33.9263ZM118.924 41.2249C118.781 41.3944 118.586 40.873 118.494 40.6645C118.416 40.4429 118.142 40.1692 118.142 39.8955C118.142 39.6088 118.208 39.5567 118.208 39.5567C118.351 39.4263 118.429 39.6349 118.442 39.8434C118.455 40.065 118.612 40.2214 118.807 40.482C119.016 40.7427 119.081 41.0425 118.924 41.2249ZM120.137 41.9287C120.176 42.033 120.254 42.1242 120.345 42.2024C120.41 42.2415 120.488 42.2676 120.554 42.2937C120.58 42.3067 120.697 42.3588 120.671 42.3849C120.619 42.3979 120.58 42.411 120.528 42.3979C120.41 42.3979 120.306 42.3719 120.202 42.3197C120.006 42.2415 119.811 42.1633 119.628 42.0591C119.472 41.9418 119.746 41.7984 119.889 41.7984C119.993 41.7984 120.071 41.8505 120.137 41.9287ZM119.68 41.7072C119.524 41.7072 119.459 41.8114 119.315 41.8245C119.25 41.8245 119.198 41.7332 119.342 41.5899C119.472 41.4986 119.641 41.4465 119.798 41.4726C120.019 41.5117 119.941 41.7072 119.68 41.7072ZM133.822 5.50057C133.782 5.60484 133.756 5.76124 133.717 5.93067C133.665 6.15224 133.561 6.34774 133.431 6.5302C133.339 6.6866 133.339 6.7257 133.365 6.71267C133.6 6.54324 133.782 6.30864 133.887 6.03494C133.939 5.91764 133.965 5.7873 133.965 5.65697C134.03 5.14867 133.887 5.3181 133.861 5.3572C133.861 5.40934 133.835 5.46147 133.822 5.50057ZM135.333 32.7663C135.451 32.4144 135.646 32.0886 135.907 31.8279C135.946 31.7758 135.868 31.5542 135.803 31.4239C135.79 31.3848 135.777 31.3848 135.777 31.3717C135.751 31.3717 135.724 31.3717 135.698 31.3717C135.659 31.3717 135.62 31.3717 135.594 31.3326C135.633 31.1762 135.672 31.0198 135.698 30.8634C135.724 30.6028 135.698 30.3291 135.62 30.0684C135.568 29.8729 135.516 29.7947 135.464 29.7686C135.412 29.7426 135.464 29.8599 135.477 30.0814C135.49 30.3551 135.438 30.6158 135.333 30.8634C135.203 31.1371 135.034 31.3717 134.982 31.5281C134.929 31.6845 134.955 31.8018 135.073 31.8409C135.112 31.8409 135.151 31.854 135.164 31.9452C135.19 32.0755 135.151 32.3623 134.669 32.9488C134.46 33.1703 134.239 33.3658 134.004 33.5353C134.017 33.6265 134.017 33.7177 134.017 33.7959C134.004 33.9132 133.965 34.0305 133.9 34.1348C133.874 34.1478 133.848 34.1739 133.822 34.1869C133.574 34.3433 133.782 34.6301 133.782 34.6301C134.056 34.4867 134.33 34.3303 134.578 34.1478C134.955 33.7829 135.229 33.3007 135.333 32.7663ZM142.906 39.0614C142.854 39.0614 142.802 39.0744 142.762 39.1135C142.58 38.9832 142.345 38.9702 142.163 39.0875C142.072 39.1787 142.02 39.296 141.993 39.4133C141.954 39.5958 141.954 39.8434 141.889 39.8564C141.876 39.8825 141.837 39.8825 141.772 39.8695C141.563 39.7913 141.589 39.8434 141.433 39.9477C141.12 40.1171 140.755 40.1301 140.443 39.9868C140.429 39.9737 140.377 39.9216 140.403 39.9216C140.742 39.9477 141.068 39.8695 141.355 39.674C141.381 39.6479 141.407 39.6218 141.433 39.5958C141.446 39.5827 141.472 39.5436 141.42 39.5567C141.394 39.5697 141.368 39.5697 141.303 39.5958C140.69 39.7131 140.052 39.674 139.465 39.4654C139.322 39.4263 139.178 39.3742 139.035 39.296C139.061 39.2178 139.022 39.1396 138.957 39.0875C138.879 39.0484 138.787 39.0223 138.696 39.0223C138.605 38.9571 138.54 38.8659 138.488 38.7747C138.031 37.8754 137.627 36.95 137.275 35.9986C136.897 34.982 136.572 33.9523 136.298 32.8966C136.298 32.8966 136.285 32.8184 136.259 32.7272C136.259 32.7011 136.246 32.6751 136.246 32.6751C136.22 32.5838 136.194 32.4926 136.168 32.4144C136.168 32.3883 136.155 32.3883 136.142 32.3883C136.089 32.3101 136.037 32.6751 136.063 32.9618C135.972 33.1182 135.907 33.2746 135.829 33.431C135.724 33.8611 135.503 34.2651 135.203 34.591C134.942 34.7995 134.76 34.8647 134.734 34.9038C134.695 34.9429 134.747 34.9559 134.812 34.982C134.851 34.995 134.877 35.0211 134.903 35.0602C134.942 35.1384 134.982 35.2035 135.008 35.2817C135.008 35.3078 135.021 35.3208 135.034 35.3469C135.32 36.2332 135.711 37.0673 136.207 37.8493C136.598 38.4619 137.106 39.1787 136.871 38.9571C136.363 38.4749 135.894 37.9536 135.49 37.3931C135.216 37.0282 135.008 36.6242 134.864 36.1941C134.76 35.8682 134.669 35.5945 134.643 35.4772C134.643 35.4642 134.617 35.399 134.617 35.386C134.604 35.3339 134.578 35.2948 134.564 35.2557C134.486 35.1253 134.434 35.0602 134.343 35.0993C134.265 35.1384 134.056 35.2557 134.056 35.2557C134.265 35.9073 134.564 36.5199 134.942 37.0803C135.373 37.7711 135.868 38.4228 136.402 39.0223C136.454 39.0744 136.493 39.1396 136.533 39.1917C136.611 39.296 136.676 39.4003 136.728 39.4785C136.702 39.5958 136.728 39.7261 136.806 39.8304C136.832 39.8564 136.858 39.8825 136.897 39.8955C136.95 39.9086 137.132 39.9216 137.028 40.1432C137.015 40.1823 136.989 40.2214 136.976 40.2605C136.95 40.3256 136.963 40.3908 136.989 40.456C137.041 40.5733 137.171 40.6515 137.197 40.7297C137.223 40.8079 137.236 40.9382 137.315 41.1858C137.328 41.238 137.354 41.2901 137.38 41.3422C137.406 41.4335 137.445 41.5117 137.484 41.5899C137.653 41.8766 137.862 42.1373 138.11 42.3588L138.474 42.7629C138.696 42.6977 138.918 42.6195 139.113 42.5152C139.322 42.424 139.517 42.3067 139.687 42.1503L139.595 41.7072L139.856 41.6029C140.495 41.4595 141.107 41.264 141.707 41.0294C142.332 40.5993 142.815 39.9868 143.075 39.2699C143.114 39.1526 142.945 39.0744 142.906 39.0614ZM137.849 41.3683C137.797 41.4074 137.549 41.3813 137.432 41.0946C137.38 40.9643 137.354 40.8209 137.328 40.6775C137.301 40.5602 137.562 40.482 137.692 40.5602C137.823 40.6384 137.784 40.873 137.784 40.873C137.771 41.238 137.901 41.3292 137.849 41.3683ZM139.934 41.251C139.726 41.3292 139.504 41.3813 139.283 41.4204C139.035 41.4726 138.813 41.5899 138.618 41.7463C138.318 41.9287 138.422 41.4986 138.54 41.3813C138.787 41.251 139.074 41.1858 139.361 41.1989C139.582 41.1858 139.804 41.1467 140.025 41.0685C140.052 41.0685 140.065 41.1989 139.934 41.251ZM137.158 16.0054C137.236 16.0185 137.328 16.0315 137.406 16.0706L137.523 15.849C137.875 15.823 138.136 15.5232 138.11 15.1713C138.083 14.8455 137.81 14.5848 137.484 14.5848C137.354 14.5848 137.21 14.6239 137.106 14.7151C137.093 14.7282 137.093 14.7282 137.132 14.7151C137.184 14.6891 137.249 14.6891 137.315 14.7021H137.328C137.38 14.7673 137.275 14.8064 137.262 14.9497C137.262 14.9888 137.249 15.067 137.197 15.0931C137.132 15.1061 137.08 15.0801 137.028 15.041C136.989 15.0149 136.976 14.9628 136.976 14.9106C136.976 14.8846 136.963 14.8846 136.95 14.8976C136.884 14.9888 136.858 15.0931 136.858 15.2104C136.858 15.3277 136.897 15.445 136.95 15.5493C136.858 15.7578 136.728 16.0576 136.702 16.1227C136.676 16.214 136.937 16.0054 137.158 16.0054ZM137.979 16.3964C138.018 16.4225 138.044 16.4616 138.083 16.5007C138.175 16.4877 138.253 16.4095 138.266 16.3052C138.279 16.214 138.188 16.1358 137.992 16.1097C137.797 16.0836 137.706 16.0445 137.601 16.0315C137.536 16.0185 137.471 16.0445 137.406 16.0836C137.432 16.0967 137.445 16.0967 137.458 16.1097C137.64 16.1879 137.81 16.2922 137.979 16.3964ZM130.055 24.8029C130.29 24.5553 130.55 24.3337 130.824 24.1252C131.032 23.9688 130.785 24.0209 130.068 24.5032C129.729 24.7508 129.442 25.0506 129.195 25.4025C128.647 26.2496 128.152 27.1229 127.722 28.0352C127.5 28.5044 127.201 28.9345 126.823 29.2994C126.393 29.6774 125.884 29.8338 125.637 30.0684C125.611 30.0945 125.585 30.1205 125.545 30.1466C125.519 30.1727 125.493 30.2118 125.467 30.2378C125.428 30.303 125.415 30.3682 125.428 30.4464C125.454 30.5767 125.415 30.707 125.324 30.8113C125.18 30.9416 125.011 31.0329 124.829 31.085C124.803 31.098 124.789 31.098 124.763 31.1111C124.724 31.1241 124.555 31.1762 124.529 31.1762C124.333 31.2023 124.216 31.2935 124.385 31.3848C124.451 31.4239 124.516 31.4499 124.581 31.463C124.737 31.5021 124.776 31.5281 124.776 31.6063C124.776 31.6976 124.672 31.854 124.281 31.9843C123.786 32.1016 123.278 32.1668 122.769 32.1537C122.535 32.1277 122.287 32.1277 122.052 32.1407C121.987 32.1798 122.013 32.258 122.287 32.3362C122.43 32.3753 122.808 32.4405 122.978 32.5056C123.082 32.5447 123.056 32.636 122.926 32.649C122.535 32.6881 122.131 32.662 121.74 32.5578C121.74 32.5578 121.609 32.5056 121.544 32.4796C121.375 32.4014 121.244 32.2841 121.14 32.1277C121.101 32.0625 121.088 31.9322 121.036 31.8931L120.736 32.2971C120.736 32.2971 120.697 32.4144 120.919 32.6881C120.958 32.649 120.945 32.5838 120.971 32.5447C121.01 32.4796 121.101 32.4274 121.153 32.5187C121.192 32.5969 121.205 32.6881 121.166 32.7793C121.14 32.8184 121.127 32.8575 121.127 32.8966C121.127 32.9097 121.127 32.9097 121.14 32.9227C121.349 33.0791 121.583 33.1703 121.831 33.2225C122.339 33.3267 122.861 33.3137 123.369 33.1964C123.421 33.1834 123.616 33.1443 123.63 33.1834C123.63 33.2616 123.603 33.3267 123.577 33.3919C123.538 33.4962 123.512 33.5353 123.486 33.6004C123.46 33.6786 123.512 33.6656 123.525 33.6656C123.603 33.6135 123.669 33.5613 123.734 33.4831C123.812 33.418 124.047 33.1964 124.112 33.1312C124.32 32.9357 124.438 32.8445 124.412 32.7533C124.412 32.7272 124.398 32.7142 124.398 32.6881C124.385 32.662 124.372 32.6229 124.372 32.5969C124.359 32.4535 124.438 32.3362 124.646 32.1798C124.868 32.0625 125.089 31.9191 125.285 31.7627C125.493 31.5542 125.35 31.3066 125.519 31.1111C125.702 30.9025 126.002 30.8113 126.106 30.6679C126.262 30.4464 126.262 30.3812 126.419 30.1205C126.705 29.7556 127.018 29.4037 127.357 29.0779C127.852 28.4262 128.269 27.7224 128.621 26.9925C129.012 26.1845 129.495 25.4676 130.055 24.8029ZM123.03 23.0825C123.017 23.0956 123.004 23.1086 122.978 23.1347C122.457 23.4996 122.339 24.2164 122.704 24.7378C122.769 24.829 122.861 24.9202 122.952 24.9984C123.173 25.1418 122.939 24.9202 123.942 23.643C124.281 23.278 124.672 22.9522 125.089 22.6655C124.959 22.6915 124.607 22.7437 124.073 22.861C123.721 22.9001 123.369 22.9783 123.03 23.0825ZM136.754 18.195C136.937 18.0908 137.015 18.0647 137.119 17.9865C137.21 17.9344 137.262 17.8431 137.275 17.7389C137.262 17.6607 137.315 17.6346 137.419 17.5955C137.51 17.5694 137.575 17.5043 137.588 17.413C137.627 17.3218 137.64 17.2566 137.64 17.2566C137.64 17.2566 137.679 17.1915 137.81 17.1654C137.953 17.1524 138.123 17.0742 138.123 16.9178C138.11 16.8265 138.097 16.7223 138.057 16.631C137.992 16.7223 137.875 16.7483 137.771 16.7092C137.562 16.631 137.432 16.5528 137.341 16.5137C137.21 16.4746 137.093 16.4616 137.145 16.5919C137.197 16.7092 137.223 16.7614 137.145 16.8526C137.106 16.8787 137.067 16.9047 137.028 16.9308C136.884 16.996 136.845 17.1002 136.858 17.1524C136.884 17.2306 136.858 17.3088 136.806 17.3609C136.728 17.4261 136.65 17.5043 136.65 17.5955C136.65 17.6867 136.624 17.7258 136.533 17.791C136.441 17.8562 136.324 17.8692 135.972 17.9083C135.777 17.9344 135.581 17.9083 135.399 17.8171C135.32 17.778 135.216 17.8171 135.177 17.8953C135.164 17.9083 135.164 17.9213 135.164 17.9474C135.164 18.0386 135.164 18.0647 135.268 18.0777C135.373 18.0908 135.373 18.169 135.255 18.195C135.138 18.2211 135.386 18.3645 135.503 18.3905C135.516 18.3905 135.542 18.4036 135.568 18.4036C134.995 19.6157 128.126 33.2355 128.074 33.3789C128.061 33.418 128.074 33.4571 128.1 33.4701C128.139 33.4962 128.178 33.4831 128.204 33.4571C128.269 33.3658 136.207 18.3384 136.207 18.3384C136.389 18.2993 136.572 18.2602 136.754 18.195ZM119.915 26.7058C120.202 26.9534 119.042 25.4416 122.378 23.1738C120.41 23.5387 120.045 24.1904 119.928 24.438C119.876 24.5423 119.798 24.7899 119.759 24.829C119.641 24.0731 120.358 23.5778 120.658 23.4214C121.701 22.8349 122.756 22.861 124.789 22.2484C124.907 22.2093 125.363 22.0659 125.441 22.0268C125.884 21.8704 126.301 21.6619 126.692 21.4143C127.253 21.0754 127.748 20.6323 128.152 20.1109C128.191 20.0588 128.23 20.0067 128.269 19.9676C128.348 19.8763 128.204 19.9285 128.1 19.9676C127.839 20.0718 127.448 20.2282 127.122 20.3455C126.862 20.4368 126.588 20.515 126.314 20.5801C125.871 20.6844 125.519 20.6062 126.002 20.4368C126.992 19.9676 128.022 19.5766 129.064 19.2638C129.143 19.2377 129.234 19.2247 129.312 19.1986C129.364 19.1856 129.429 19.1725 129.481 19.1595C129.794 19.0943 130.107 19.0683 130.433 19.0683C130.733 19.0552 131.032 19.0813 131.332 19.1334C131.528 18.951 131.71 18.7424 131.854 18.5209C131.88 18.4687 131.906 18.4296 131.932 18.3905C131.945 18.3645 131.958 18.3384 131.971 18.3123L131.984 18.3384C132.101 18.5991 132.492 19.4593 132.688 19.2898C132.844 18.8988 132.935 18.4818 132.961 18.0517C132.675 17.9213 132.271 17.7258 132.31 17.7389C132.375 17.7519 132.596 17.8301 132.714 17.7128L132.727 17.6998C132.753 17.6737 132.779 17.6476 132.805 17.6346C132.857 17.6216 132.922 17.6346 132.948 17.6867L132.961 17.6998C132.987 17.7389 133 17.778 133.014 17.8171C133.027 17.8692 133.053 17.9213 133.092 17.9735C133.248 18.1429 133.196 18.0647 133.626 18.2472C133.665 18.2602 133.691 18.2732 133.717 18.2863C133.665 18.2211 133.613 18.1559 133.561 18.0908C133.391 17.8171 133.743 17.8431 133.887 17.9604C134.134 18.169 134.004 18.2341 133.978 18.3775C134.134 18.4296 134.304 18.4557 134.473 18.4818C134.617 18.5078 134.76 18.4296 134.799 18.2863C134.864 18.0908 134.512 18.2081 134.447 17.7649C134.356 17.4 134.486 17.022 134.786 16.8005C134.916 16.7092 135.047 16.631 135.177 16.5528C135.255 16.5137 135.386 16.4486 135.425 16.4355C135.477 16.4095 135.516 16.3834 135.568 16.3573C135.62 16.3313 135.672 16.2922 135.711 16.2531C135.751 16.214 135.764 16.1749 135.724 16.1618C135.698 16.1488 135.659 16.1488 135.633 16.1618C135.503 16.1749 135.373 16.1879 135.242 16.1749C135.112 16.1749 134.955 16.1618 134.799 16.1358C134.734 16.1227 134.656 16.1227 134.578 16.1097C134.486 16.0967 134.447 16.0967 134.317 16.0706C134.121 16.0445 133.939 16.0054 133.756 15.9403C133.391 15.836 133 15.6926 132.649 15.6275L132.557 15.6014C132.271 15.5623 131.997 15.5623 131.71 15.6275C131.436 15.6796 131.163 15.7057 130.889 15.7187C130.746 15.7187 130.602 15.6926 130.459 15.6405C130.355 15.6144 130.263 15.5623 130.172 15.4971C130.172 15.4971 129.977 15.3798 130.576 15.3016C130.967 15.2495 131.371 15.2234 131.775 15.2365C132.127 15.2495 132.466 15.3147 132.792 15.4189C132.935 15.4711 132.974 15.4841 133.066 15.5232C133.144 15.5493 133.17 15.5623 133.209 15.5753C133.248 15.5884 133.274 15.6014 133.313 15.6014C133.405 15.1974 133.665 14.1938 133.822 13.6334C133.991 12.9687 134.121 12.2909 134.213 11.6132C134.982 11.8478 135.764 12.0042 136.559 12.0954C137.549 12.2649 138.553 12.2779 139.543 12.1476C139.778 12.0694 140.26 11.8087 140.299 11.5611C140.364 11.144 139.713 10.1535 139.165 9.48877C138.918 9.20204 138.722 8.8762 138.566 8.5243C138.553 8.4852 138.54 8.44611 138.54 8.42004C138.527 8.19847 138.527 8.04207 138.266 8.016C138.227 8.016 138.175 8.016 138.136 8.04207C138.083 8.0551 138.057 8.02904 138.031 7.96387C138.031 7.95084 138.018 7.9378 138.018 7.92477L138.005 7.89871C137.992 7.84657 137.953 7.80747 137.914 7.80747C137.888 7.79444 137.862 7.79444 137.836 7.7814C137.771 7.7423 137.732 7.69017 137.719 7.625C137.692 7.55984 137.653 7.44254 137.653 7.4295C137.614 7.3513 137.562 7.2731 137.497 7.1949C137.432 7.09064 137.38 6.98637 137.341 6.8821C137.249 6.66054 137.184 6.43897 137.132 6.2174C137.106 6.1392 137.041 6.07404 136.95 6.04797C136.91 6.04797 136.884 6.03494 136.845 6.03494C136.715 6.02191 136.611 5.9828 136.65 5.9828C136.728 5.96977 136.806 5.96977 136.884 5.96977C136.858 5.93067 136.832 5.8655 136.806 5.80034C136.78 5.69607 136.689 5.6309 136.585 5.6309C136.506 5.6309 136.05 5.60484 135.998 5.69607L135.985 5.70911C136.011 5.69607 136.05 5.69607 136.076 5.68304C136.168 5.68304 136.207 5.74821 136.22 5.85247C136.233 5.91764 136.233 5.98281 136.207 6.03494C136.207 6.03494 136.337 5.99584 136.363 6.10011C136.376 6.17831 136.376 6.2565 136.35 6.3347C136.35 6.3347 136.415 6.26954 136.493 6.36077C136.506 6.37381 136.519 6.39987 136.519 6.4129C136.533 6.46504 136.533 6.51717 136.506 6.5693C136.493 6.59537 136.48 6.62144 136.467 6.6475C136.454 6.67357 136.428 6.6866 136.415 6.71267C136.402 6.73874 136.415 6.7648 136.402 6.8039C136.389 6.86907 136.363 6.93424 136.324 6.98637C136.298 7.01244 136.272 7.01244 136.246 7.02547C136.207 7.02547 136.168 6.9994 136.155 6.9603C136.155 6.9603 136.05 7.1167 135.959 7.12974C135.868 7.14277 135.842 7.0776 135.829 7.01244C135.816 6.97334 135.79 6.66054 135.751 6.46504C135.751 6.42594 135.751 6.38684 135.751 6.3347C135.751 6.3347 135.751 6.30864 135.764 6.28257C135.764 6.28257 135.777 6.20437 135.79 6.1783C135.816 6.07404 135.829 5.95674 135.803 5.95674C135.803 5.95674 135.803 5.95674 135.79 5.96977C135.711 6.08707 135.672 6.21741 135.646 6.36077C135.646 6.4129 135.646 6.43897 135.646 6.47807C135.646 6.54324 135.646 6.59537 135.633 6.66054C135.633 6.67357 135.62 6.66054 135.607 6.66054C135.581 6.6084 135.542 6.55627 135.503 6.50414C135.412 6.39987 135.242 6.30864 135.112 6.39987C135.034 6.452 135.164 6.54324 135.229 6.67357C135.307 6.81694 135.373 6.9603 135.425 7.10367C135.464 7.234 135.529 7.33827 135.62 7.4295C135.79 7.57287 135.985 7.69017 136.181 7.7814C136.363 7.8596 136.533 7.96387 136.689 8.09421C136.715 8.12027 136.741 8.14634 136.767 8.18544C136.793 8.22454 136.819 8.26364 136.832 8.28971C136.858 8.31577 136.884 8.3288 136.91 8.3288C137.002 8.34184 137.08 8.34184 137.171 8.34184C137.21 8.34184 137.236 8.34184 137.275 8.35487C137.341 8.38094 137.315 8.45914 137.301 8.4852C137.275 8.52431 137.236 8.55037 137.197 8.57644C137.171 8.58947 137.145 8.6025 137.119 8.61554C137.08 8.62857 137.054 8.6416 137.015 8.6416C136.963 8.6416 136.897 8.6416 136.845 8.6416H136.819C136.78 8.6416 136.741 8.62857 136.702 8.61554C136.676 8.6025 136.663 8.58947 136.637 8.57644C136.572 8.53734 136.506 8.47217 136.454 8.407L136.441 8.39397C136.415 8.35487 136.402 8.34184 136.35 8.35487C136.298 8.38094 136.194 8.43307 136.207 8.4852C136.207 8.49824 136.22 8.51127 136.22 8.51127C136.285 8.65464 136.298 8.82407 136.272 8.98047C136.259 9.1499 136.311 9.41057 136.467 9.16294C136.572 8.9935 136.924 9.41057 136.767 9.5018C136.624 9.60607 136.428 9.5018 136.533 9.67124C136.637 9.84067 136.754 9.7755 136.989 9.95797L137.002 9.971C137.015 9.971 137.028 9.98404 137.054 9.98404C137.08 9.99707 137.119 9.99707 137.145 9.99707C137.158 9.99707 137.171 9.99707 137.184 9.99707C137.223 9.99707 137.275 9.99707 137.315 9.99707C137.393 9.98404 137.484 9.98404 137.562 10.0101C137.588 10.0362 137.588 10.0622 137.523 10.1144C137.471 10.1535 137.419 10.1795 137.354 10.2056C137.393 10.3229 137.432 10.4272 137.484 10.5314C137.51 10.5966 137.562 10.6748 137.601 10.7269C137.836 11.0137 138.11 11.2483 138.422 11.4307C138.474 11.4698 138.422 11.5089 138.279 11.4698C137.966 11.3656 137.679 11.1961 137.432 10.9746C137.419 10.9615 137.354 10.8964 137.341 10.8833C137.275 10.8051 137.223 10.7139 137.184 10.6227C137.171 10.5836 137.132 10.5054 137.119 10.4663C137.106 10.4272 137.08 10.375 137.054 10.349C137.002 10.3099 136.897 10.3229 136.871 10.5705C136.871 10.6487 136.871 10.74 136.871 10.8182C136.871 10.8442 136.871 10.8703 136.871 10.8964C136.871 10.9876 136.806 11.0137 136.754 10.9485C136.624 10.8312 136.546 10.6618 136.533 10.4923C136.533 10.4793 136.533 10.4272 136.533 10.4141C136.519 10.2838 136.559 10.1404 136.637 10.0231C136.519 9.95797 136.402 9.86674 136.337 9.74944C136.168 9.51484 135.881 9.3845 135.594 9.39754C135.125 9.4236 134.916 9.00654 134.721 8.82407C134.46 8.62857 134.147 8.5243 133.822 8.53734C133.509 8.55037 133.261 8.58947 133.222 8.57644C133.222 8.57644 133.17 8.65464 133.339 8.96744C133.431 9.13687 133.704 9.189 133.678 9.55394C133.652 9.90584 133.483 10.2186 133.704 10.4923C133.717 10.5054 133.73 10.5314 133.743 10.5445C133.9 10.766 133.978 11.0397 133.939 11.3004C133.809 12.4473 133.496 13.5682 133 14.6109C132.857 14.9106 132.857 14.5848 132.857 14.5848C132.831 13.5552 132.649 12.5386 132.323 11.5611C131.906 10.3229 131.293 9.16294 130.511 8.12027C130.094 7.49467 129.612 6.9212 129.064 6.4129C129.012 6.46504 129.077 6.7648 128.882 7.05154C128.778 7.16884 128.66 7.2731 128.53 7.36434C128.465 7.4295 128.739 7.37737 128.96 7.4686C129.247 7.5859 129.508 7.75534 129.169 7.69017C128.843 7.63804 128.256 7.63804 128.295 7.69017C128.335 7.7423 128.804 7.87264 129.156 8.12027C129.377 8.27667 129.69 8.55037 129.195 8.43307C128.713 8.2897 128.204 8.19847 127.709 8.14634C127.162 8.10724 126.601 8.36791 126.731 8.42004C126.731 8.42004 126.744 8.42004 126.758 8.43307C126.901 8.47217 127.031 8.53734 127.149 8.61554C127.305 8.70677 127.448 8.82407 127.566 8.96744C127.553 8.98047 127.526 8.98047 127.474 8.96744C127.396 8.9544 127.331 8.92834 127.253 8.88924C127.07 8.77194 126.862 8.69374 126.64 8.65464C126.523 8.65464 126.562 8.70677 126.64 8.7589C126.705 8.798 126.797 8.85014 126.862 8.88924C127.135 9.04564 127.37 9.2672 127.54 9.52787C127.683 9.78854 127.8 10.0492 127.891 10.3359C127.944 10.4923 127.983 10.6357 128.022 10.7921C128.061 10.9746 128.035 10.9876 127.996 10.9224C127.97 10.8833 127.917 10.8051 127.878 10.753C127.839 10.7009 127.774 10.5966 127.722 10.5184C127.644 10.3881 127.54 10.2447 127.448 10.1013C127.292 9.8537 127.057 9.51484 126.94 9.5409C126.81 9.56697 126.914 9.94494 127.031 10.1665C127.253 10.4793 127.513 10.753 127.8 11.0137C127.852 11.0658 127.891 11.1049 127.931 11.157C127.957 11.1961 127.983 11.2222 128.022 11.2613C128.322 11.6523 128.595 12.0563 128.843 12.4734C129.064 12.8514 129.247 13.2424 129.403 13.6464C129.481 13.8158 129.612 13.9592 129.781 14.0504C130.159 14.2459 130.107 14.2981 130.198 14.4023C130.29 14.4936 130.407 14.5587 130.524 14.5718C130.563 14.5848 130.72 14.6369 130.72 14.6369C130.85 14.663 130.967 14.7412 131.032 14.8585C131.072 14.9106 131.059 14.9628 131.006 14.9628C130.941 14.9628 130.811 14.9367 130.615 14.9237C130.329 14.8976 130.055 14.9237 129.781 14.9888C129.677 15.0019 129.26 15.0931 129.169 15.1192C128.895 15.1713 128.595 15.1192 128.348 14.9888C128.139 14.8715 127.957 14.7151 127.8 14.5457C127.67 14.4023 127.579 14.1677 127.944 14.3893C128.204 14.5587 128.504 14.65 128.804 14.676C128.843 14.676 128.895 14.676 128.934 14.676C129.104 14.676 129.403 14.663 129.625 14.663C129.742 14.676 129.859 14.663 129.977 14.65C129.99 14.6369 129.964 14.6109 129.925 14.5718C129.807 14.4936 129.664 14.4414 129.534 14.4154C129.143 14.3372 128.439 14.3372 128.1 13.7898C127.957 13.5552 128.269 13.7376 128.595 13.7898C128.817 13.8289 128.504 13.477 128.335 13.2684C128.165 13.086 127.931 12.9035 127.331 12.3691C126.875 11.9521 126.471 11.4959 126.106 11.0006C125.806 10.6618 125.637 10.2317 125.598 9.78854C125.598 9.48877 125.65 9.20204 125.767 8.92834C125.806 8.85014 125.871 8.70677 125.793 8.73284C125.663 8.798 125.558 8.90227 125.48 9.01957C125.402 9.1499 125.337 9.29327 125.311 9.44967C125.259 10.1274 125.324 10.8051 125.532 11.4438C125.532 11.4568 125.676 11.926 125.923 12.5386C126.106 12.9687 126.314 13.3857 126.549 13.7898C126.731 14.1026 127.018 14.5457 127.227 14.8585C127.409 15.1192 127.722 15.5362 127.722 15.5362C127.826 15.6666 127.944 15.7839 128.074 15.9012C128.204 16.0054 128.348 16.0967 128.504 16.1749C128.817 16.3182 129.13 16.4355 129.455 16.5398C129.833 16.6701 130.746 17.022 130.915 17.1002C131.397 17.2957 130.263 17.0481 129.416 16.8656C129.025 16.8005 128.647 16.6962 128.282 16.5398C128.087 16.4486 127.917 16.3182 127.761 16.1749C127.761 16.1749 127.748 16.1488 127.735 16.1488C127.722 16.1358 127.709 16.1488 127.696 16.2009C127.696 16.24 127.683 16.2791 127.657 16.4355C127.644 16.5137 127.631 16.5919 127.605 16.6571C127.435 17.2436 127.135 17.791 126.731 18.2472C126.758 18.0256 126.653 17.9213 126.419 18.0777C125.845 18.573 125.115 18.8467 124.359 18.8597C123.825 18.8337 123.538 18.5339 123.499 18.6251C123.486 18.6642 123.486 18.7033 123.499 18.7424C123.59 19.0422 123.799 19.2898 124.086 19.4071C124.346 19.5244 124.633 19.5766 124.92 19.5635C124.047 19.7069 123.199 19.9676 122.404 20.3586C120.554 21.2709 119.368 23.1477 119.342 25.207C119.368 25.7804 119.563 26.3018 119.915 26.7058ZM131.736 12.9296C131.606 12.9817 131.45 12.9296 131.397 12.7992C131.345 12.6689 131.397 12.5125 131.528 12.4604C131.658 12.4082 131.814 12.4604 131.867 12.5907C131.867 12.6037 131.88 12.6168 131.88 12.6298C131.919 12.7471 131.867 12.8774 131.736 12.9296ZM132.323 14.0374C132.336 14.1547 132.245 14.259 132.127 14.272C132.01 14.285 131.906 14.1938 131.893 14.0765C131.88 13.9722 131.958 13.868 132.062 13.8419C132.179 13.8289 132.297 13.9071 132.323 14.0374ZM129.351 9.60607C129.586 9.43664 129.846 9.3063 130.133 9.2281C130.29 9.2281 129.886 9.55394 129.951 9.6582C129.99 9.72337 130.433 10.0362 130.993 10.6096C131.28 10.8964 131.515 11.2222 131.71 11.5871C131.775 11.6914 131.814 11.8087 131.814 11.939C131.788 11.9912 131.606 11.6523 131.189 11.2092C130.368 10.349 129.325 9.68427 129.351 9.60607ZM136.155 6.38684C136.181 6.2956 136.207 6.20437 136.181 6.20437C136.181 6.20437 136.142 6.20437 136.102 6.28257C136.076 6.36077 136.063 6.43897 136.076 6.51717C136.076 6.55627 136.128 6.47807 136.155 6.38684Z" fill="black"/>
  <path d="M133.3 5.27892C133.3 5.26588 133.287 5.26588 133.274 5.26588C133.196 5.23982 133.105 5.21375 133.013 5.22678C132.987 5.22678 132.974 5.22678 132.948 5.22678C132.792 5.23982 132.636 5.21375 132.479 5.16162C132.466 5.14858 132.453 5.14858 132.44 5.13555C132.414 5.12252 132.401 5.09645 132.401 5.05735C132.388 5.03128 132.388 5.01825 132.375 4.99218C132.375 4.97915 132.362 4.97915 132.362 4.96612H132.349C132.31 4.94005 132.271 4.90095 132.245 4.88792C132.245 4.87488 132.245 4.86185 132.245 4.86185C132.245 4.84882 132.258 4.84882 132.258 4.83578L132.271 4.80972V4.79668C132.271 4.78365 132.271 4.77062 132.245 4.74455C132.231 4.73152 132.205 4.70545 132.179 4.69242C132.14 4.66635 132.101 4.64028 132.075 4.62725C132.01 4.58815 131.932 4.56208 131.867 4.56208C131.788 4.54905 131.71 4.56208 131.697 4.61422C131.684 4.64028 131.671 4.67938 131.658 4.70545C131.632 4.77062 131.619 4.84882 131.606 4.91398C131.554 5.12252 131.593 5.34408 131.697 5.53958L131.71 5.55262C131.71 5.56565 131.671 5.57868 131.606 5.57868C131.515 5.57868 131.241 5.37015 131.202 5.34408C131.189 5.34408 131.189 5.33105 131.189 5.33105C131.163 5.26588 131.15 5.18768 131.137 5.12252C131.124 5.03128 131.098 4.92702 131.058 4.83578C131.032 4.78365 131.006 4.74455 130.967 4.70545C130.954 4.69242 130.941 4.67938 130.928 4.67938C130.902 4.66635 130.876 4.64028 130.85 4.62725C130.85 4.61422 130.837 4.61422 130.85 4.60118V4.58815C130.889 4.56208 130.928 4.54905 130.98 4.56208C131.006 4.57512 131.032 4.58815 131.058 4.61422L131.072 4.62725V4.64028C131.058 4.54905 131.032 4.45782 130.98 4.37962V4.36658C130.954 4.34052 130.915 4.31445 130.876 4.30142C130.694 4.27535 130.511 4.40568 130.459 4.58815C130.446 4.64028 130.433 4.67938 130.433 4.73152C130.446 4.84882 130.485 4.96612 130.537 5.07038C130.576 5.17465 130.602 5.27892 130.615 5.38318C130.628 5.47442 130.654 5.50048 130.654 5.51352C130.707 5.56565 130.785 5.57868 130.863 5.56565C130.876 5.56565 130.876 5.59172 130.863 5.60475C130.837 5.66992 130.759 5.77418 130.694 5.76115C130.681 5.74812 130.667 5.73508 130.654 5.72205C130.576 5.63082 130.472 5.56565 130.368 5.51352C130.211 5.43532 130.029 5.43532 129.885 5.52655C129.859 5.55262 129.859 5.52655 129.885 5.64385C129.899 5.77418 129.885 5.90452 129.846 6.02182C129.807 6.10002 129.807 6.19125 129.833 6.28248C129.912 6.49102 130.042 6.68652 130.224 6.82988C130.42 7.03842 130.641 7.23392 130.889 7.39032C131.019 7.45548 131.111 7.10358 131.124 7.07752C131.124 7.06448 131.124 7.06448 131.111 7.05145C131.072 7.03842 130.928 7.06448 130.85 7.06448C130.811 7.05145 130.811 7.02538 130.837 6.98628L130.85 6.97325C130.928 6.90808 131.019 6.84292 131.124 6.80382C131.124 6.80382 131.137 6.80382 131.137 6.81685C131.163 6.82988 131.241 6.90808 131.254 6.92112C131.319 6.98628 131.423 7.09055 131.554 7.20785L131.567 7.22088C131.697 7.35122 131.854 7.45548 132.023 7.54672H132.036C132.205 7.63795 132.544 7.76828 132.727 7.63795C132.792 7.58582 132.831 7.50762 132.844 7.42942C132.883 7.35122 132.922 7.28605 132.974 7.22088C133 7.18178 132.818 7.27302 132.766 7.39032C132.753 7.42942 132.701 7.50762 132.622 7.50762C132.57 7.49458 132.531 7.48155 132.492 7.45548C132.505 7.42942 132.518 7.41638 132.518 7.39032C132.531 7.36425 132.531 7.32515 132.531 7.29908C132.531 7.18178 132.557 7.07752 132.609 6.97325C132.636 6.93415 132.675 6.90808 132.675 6.90808C132.701 6.86898 132.714 6.82988 132.714 6.79078C132.714 6.73865 132.74 6.67348 132.779 6.63438C132.805 6.60832 132.818 6.59528 132.844 6.56922C132.87 6.54315 132.896 6.50405 132.909 6.45192C132.935 6.36068 132.961 6.26945 133.013 6.26945C133.066 6.26945 133.118 6.26945 133.17 6.26945C133.235 6.26945 133.287 6.23035 133.313 6.17822C133.339 6.04788 133.352 5.93058 133.352 5.80025C133.352 5.60475 133.352 5.44835 133.3 5.27892ZM131.997 6.13912C131.919 6.19125 131.919 6.28248 131.854 6.26945L131.84 6.25642C131.814 6.23035 131.788 6.07395 131.867 6.03485C131.958 5.99575 132.062 5.99575 132.153 6.02182C132.218 6.06092 132.075 6.08698 131.997 6.13912Z" fill="black"/>
  <path d="M135.698 16.7743C135.555 16.7873 135.399 16.8134 135.255 16.8525C135.138 16.8916 135.021 16.9698 135.06 17.048C135.099 17.1132 135.229 17.1132 135.464 16.9959C135.711 16.8786 135.816 16.7743 135.698 16.7743Z" fill="black"/>
  <path d="M133.6 11.431C133.613 11.2224 133.274 11.2876 133.339 11.4179C133.378 11.4961 133.391 11.5874 133.378 11.6786C133.496 11.6525 133.587 11.5483 133.6 11.431Z" fill="black"/>
  <path d="M133.105 10.6225C133.157 10.7789 133.183 10.831 133.183 10.831C133.274 10.8571 133.378 10.8049 133.404 10.7137C133.404 10.7007 133.417 10.6746 133.417 10.6616C133.444 10.44 133.053 10.4661 133.105 10.6225Z" fill="black"/>
  <path d="M130.42 3.45426C130.42 3.45426 130.368 3.57156 130.094 3.54549C129.82 3.53246 129.664 3.54549 129.599 3.84526C129.547 4.07986 129.573 4.31446 129.664 4.53603C129.716 4.70546 129.742 4.87489 129.638 4.94006C129.534 5.00523 129.442 4.95309 129.442 5.05736C129.455 5.12253 129.521 5.17466 129.586 5.17466C129.677 5.17466 129.781 5.16163 129.872 5.12253C129.977 5.09646 130.094 5.10949 130.185 5.16163C130.316 5.22679 130.237 5.04433 130.042 4.82276C129.846 4.56209 129.781 4.23626 129.859 3.93649C129.964 3.61066 130.263 3.70189 130.381 3.62369C130.485 3.54549 130.472 3.40213 130.42 3.45426Z" fill="black"/>
  <path d="M129.429 3.08959C129.494 3.15476 129.586 3.19386 129.677 3.21992C129.781 3.25902 129.885 3.28509 129.99 3.29813C130.25 3.32419 130.342 3.29812 130.628 3.32419C130.837 3.33722 131.045 3.37632 131.241 3.44149C131.775 3.66306 132.244 3.98889 132.649 4.40596C132.831 4.60146 133.222 4.88819 133.248 4.79696C133.17 4.70573 133.092 4.61449 133.013 4.52326C132.87 4.32776 132.727 4.09316 132.609 3.94979C132.492 3.80643 132.349 3.67609 132.192 3.55879C132.14 3.51969 132.036 3.44149 132.023 3.42846C131.945 3.33723 132.153 3.38936 132.244 3.42846C132.492 3.54576 132.727 3.67609 132.948 3.84552C133.105 3.94979 133.235 4.08012 133.365 4.23652C133.548 4.48416 133.665 4.71876 133.822 4.90122C133.926 5.01852 134.043 5.10976 134.186 5.17492C134.512 5.33132 134.89 5.39649 135.255 5.34436C135.516 5.26616 135.607 5.18796 135.594 5.10976C135.62 5.13582 135.646 5.16189 135.672 5.18796C135.711 5.22706 135.75 5.25312 135.79 5.29222C135.803 5.30526 135.816 5.30526 135.842 5.31829C135.907 5.34436 135.959 5.31829 135.972 5.34436C135.972 5.38346 135.972 5.40952 135.946 5.43559C135.946 5.44862 135.959 5.46166 135.972 5.50076C135.998 5.55289 136.181 5.56592 136.181 5.56592C136.181 5.56592 136.402 5.59199 136.389 5.55289C136.389 5.55289 136.415 5.51379 136.22 5.21403C136.037 5.04459 135.829 4.88819 135.62 4.74482C135.529 4.67966 135.451 4.74482 135.464 4.84909C135.477 4.90122 135.49 4.96639 135.529 5.00549C135.399 4.92729 135.268 4.86212 135.112 4.83606C134.864 4.80999 134.643 4.70573 134.473 4.53629C134.434 4.51023 134.447 4.47113 134.447 4.47113C134.656 4.10619 134.903 3.75429 135.177 3.44149C135.49 3.12869 135.79 2.92016 135.855 2.72466C135.711 1.85143 135.138 1.10852 134.33 0.730558C133.613 0.248325 132.74 0.0397919 131.88 0.131025C131.554 0.222259 131.502 0.378659 131.502 0.561126C131.489 0.873926 131.449 1.18673 131.384 1.48649C131.332 1.65593 131.293 1.83839 131.28 2.02086C131.293 2.09906 131.332 2.16422 131.384 2.21636C131.462 2.30759 131.554 2.39883 131.658 2.46399C131.853 2.60736 132.023 2.78983 132.179 2.97229C132.297 3.15476 132.101 3.08959 131.984 3.01139C131.723 2.82892 131.449 2.67252 131.15 2.55522C131.032 2.50309 130.863 2.45096 130.746 2.41186C130.303 2.22939 129.794 2.25546 129.377 2.50309C129.169 2.71162 129.273 2.94622 129.429 3.08959Z" fill="black"/>
  <path d="M76.3739 15.1548L78.0952 16.4936C78.0952 17.7049 78.1271 18.9799 78.159 20.4143C78.159 21.8168 78.1908 23.315 78.1908 24.9088C77.1389 23.5381 76.1827 22.3587 75.322 21.275C74.4614 20.1912 73.6964 19.2349 73.0589 18.438C72.3895 17.6411 71.8157 16.9399 71.3695 16.3342C71.0188 15.9199 70.7001 15.5055 70.4132 15.0273H66.5881V15.1548L68.3732 16.4299C68.5007 20.5418 68.5007 23.8887 68.3732 26.4707L66.875 27.7138V27.8732H71.2738V27.7138L69.6163 26.4707C69.5207 23.4744 69.4888 20.5418 69.4888 17.6093L77.0433 27.1401C77.1389 27.2676 77.2664 27.4269 77.3939 27.5544C77.4896 27.6501 77.5533 27.7776 77.5533 27.9369H79.3065C79.2109 26.2794 79.1471 24.5263 79.1471 22.6137C79.1152 20.7649 79.1471 18.693 79.2109 16.4617L80.709 15.123V15.0273H76.3102V15.1548H76.3739Z" fill="black"/>
  <path d="M88.4229 16.2067L89.8892 15.1548V15.0273H84.7254V15.1548L86.2235 16.2067C86.2554 19.6493 86.2554 23.0919 86.2235 26.5982L84.6935 27.6819V27.8413H89.9848V27.6819L88.4548 26.5982C88.3592 23.2512 88.3592 19.8406 88.4229 16.2067Z" fill="black"/>
  <path d="M102.958 26.7581C101.141 26.8218 99.3879 26.8218 97.7304 26.7581C97.6985 25.0686 97.6985 23.3792 97.7304 21.7217C98.6867 21.6898 100.025 21.6898 101.747 21.6898L102.735 23.1561H102.862V19.1717H102.735L101.747 20.6698C99.4835 20.6698 98.1129 20.6379 97.6985 20.6061C97.6666 19.8729 97.6666 19.1398 97.6666 18.4067C97.6666 17.6735 97.6666 16.9404 97.6985 16.1435C98.4954 16.0797 99.356 16.0797 100.217 16.0797C101.077 16.0797 101.97 16.0797 102.894 16.0797L103.978 17.546H104.105V14.996H94.0647V15.1235L95.531 16.1754C95.5629 19.1717 95.5629 22.6142 95.531 26.5668L94.0647 27.6506V27.81H104.361V24.973H104.201L102.958 26.7581Z" fill="black"/>
  <path d="M58.6511 15.1548L60.3405 16.4936C60.3724 17.7049 60.3724 18.9799 60.4043 20.4143C60.4362 21.8168 60.4362 23.315 60.4362 24.9088C59.4162 23.5381 58.4599 22.3587 57.5992 21.275C56.7386 20.1912 55.9417 19.2349 55.3042 18.438C54.6348 17.6411 54.0929 16.9399 53.6467 16.3342C53.296 15.9199 52.9773 15.4736 52.6904 15.0273H48.8972V15.1548L50.6822 16.4299C50.8097 20.5418 50.8097 23.8887 50.6822 26.4707L49.216 27.7138V27.8732H53.5829V27.7138L51.9254 26.4707C51.8298 23.4744 51.766 20.5418 51.766 17.6093L59.3524 27.1401C59.4799 27.2676 59.5755 27.4269 59.703 27.5544C59.7987 27.6501 59.8624 27.7776 59.8943 27.9369H61.6474C61.5199 26.2794 61.4562 24.5263 61.4562 22.6137C61.4562 20.7649 61.4562 18.693 61.5518 16.4617L63.05 15.123V15.0273H58.6511V15.1548Z" fill="black"/>
  <path d="M172.543 11.7447C172.798 11.9041 173.053 12.0635 173.276 12.2547C173.531 12.446 173.754 12.6053 173.977 12.7966C173.499 14.486 173.053 15.9841 172.702 17.3867C172.319 18.7573 171.969 19.9048 171.682 20.9249C171.395 21.913 171.172 22.7099 170.981 23.3793C170.821 24.0168 170.694 24.4631 170.662 24.6862L167.092 12.9241C167.347 12.6691 167.57 12.446 167.793 12.2547C168.016 12.0635 168.239 11.9041 168.462 11.7447V11.5853H162.789V11.7447L164.223 12.8285C163.84 14.0397 163.49 15.2191 163.139 16.3667C162.82 17.4504 162.502 18.5023 162.215 19.4586C161.928 20.4149 161.673 21.3392 161.418 22.168C161.163 22.9968 160.94 23.7937 160.749 24.5587L157.402 12.8922L158.772 11.7447V11.5853H153.322V11.7447C153.545 11.936 153.768 12.0953 153.927 12.2228C154.055 12.3185 154.182 12.446 154.31 12.5416C154.405 12.6053 154.469 12.701 154.533 12.7966C154.597 12.8603 154.66 12.956 154.66 13.0516C154.852 13.6254 155.075 14.3904 155.425 15.4104C155.744 16.4623 156.127 17.6417 156.573 18.9486C157.019 20.2555 157.465 21.6899 157.975 23.2199C158.454 24.7818 158.964 26.3437 159.442 28.0331H161.227C161.195 27.9694 161.195 27.9056 161.195 27.8737C161.195 27.7781 161.195 27.6506 161.227 27.555C161.259 27.4594 161.29 27.3319 161.29 27.2362C161.322 27.1406 161.386 27.045 161.386 26.9493C161.545 26.3756 161.705 25.77 161.864 25.1324C162.024 24.4631 162.215 23.7618 162.438 23.0605C162.661 22.3593 162.852 21.5943 163.075 20.8292C163.299 20.0961 163.49 19.3311 163.713 18.5661C163.904 17.8329 164.127 17.1317 164.35 16.4304C164.542 15.6973 164.765 15.0598 164.924 14.486L169.196 28.065H170.917C170.981 27.7781 171.108 27.2362 171.331 26.4075C171.554 25.6106 171.873 24.5906 172.256 23.3155C172.638 22.0724 173.084 20.5742 173.594 18.853C174.104 17.1317 174.71 15.1235 175.316 12.9879C175.698 12.6372 175.985 12.3822 176.208 12.1591C176.431 11.9678 176.591 11.8085 176.686 11.7447V11.6172H172.511V11.7447H172.543Z" fill="black"/>
  <path d="M3.72944 11.8085L5.70573 13.0197L5.83323 26.79C5.83323 27.3637 5.83323 27.8419 5.80135 28.2562C5.76948 28.6388 5.7376 29.0213 5.67385 29.4038C5.6101 29.7544 5.51447 30.0732 5.35509 30.3919C5.19572 30.7107 5.00446 30.9975 4.78133 31.2525C4.49445 31.6032 4.11195 31.9219 3.66569 32.1132C3.21943 32.3363 2.7413 32.4319 2.26316 32.4001C2.32692 32.3363 2.35879 32.2726 2.39067 32.1769C2.42254 32.1132 2.48629 32.0176 2.48629 31.9219C2.51817 31.7944 2.51817 31.6988 2.51817 31.5713C2.51817 31.4438 2.48629 31.3163 2.42254 31.1888C2.35879 31.0613 2.26316 30.9019 2.16754 30.8063C2.04004 30.7107 1.91253 30.615 1.78503 30.5513C1.62565 30.4875 1.46628 30.4238 1.3069 30.4238C0.988143 30.4238 0.669387 30.5513 0.414383 30.8063C0.28688 30.9338 0.191253 31.0613 0.127502 31.2207C0.063751 31.38 0 31.5713 0 31.7307C0 31.9857 0.0637514 32.2407 0.223129 32.4638C0.350631 32.6551 0.541885 32.8463 0.733138 32.9738C0.956267 33.1013 1.1794 33.197 1.4344 33.2607C1.65753 33.3245 1.91253 33.3563 2.16754 33.3563C2.64567 33.3563 3.15568 33.2607 3.60194 33.1013C4.0482 32.942 4.49445 32.7188 4.87696 32.4319C5.29134 32.1451 5.64197 31.7944 5.99261 31.4119C6.34324 30.9975 6.63012 30.5513 6.85325 30.0732C7.07638 29.6588 7.26763 29.2763 7.45888 28.8938C7.65014 28.5112 7.80951 28.065 7.93702 27.6506C8.06452 27.1725 8.16014 26.6943 8.2239 26.2162C8.28765 25.6106 8.31952 25.0368 8.31952 24.4312C8.31952 23.7299 8.28765 23.0286 8.28765 22.2955C8.28765 21.5305 8.25577 20.7336 8.25577 19.8092C8.25577 18.8848 8.2239 17.8648 8.2239 16.7492C8.19202 15.5698 8.19202 14.2629 8.19202 12.7966L9.81767 11.7447V11.5853H3.72944V11.8085Z" fill="black"/>
  <path d="M24.7355 24.0484C24.5124 24.7178 24.1937 25.3553 23.7474 25.8972C23.3649 26.3753 22.8549 26.7897 22.313 27.0765C21.803 27.2997 21.2292 27.4272 20.6555 27.4591C20.0498 27.4591 19.4442 27.2997 18.8704 27.0447C18.2967 26.7578 17.8186 26.3434 17.4042 25.8334C16.9579 25.2596 16.6073 24.6221 16.3842 23.9527C16.1291 23.1559 16.0016 22.2952 16.0335 21.4346C16.0335 20.6377 16.1291 19.8408 16.3204 19.0439C16.5117 18.3745 16.7985 17.737 17.2129 17.1951C17.5954 16.6851 18.0736 16.2389 18.6473 15.9201C19.2211 15.6013 19.8905 15.442 20.5599 15.4738C21.2292 15.4738 21.8986 15.6332 22.5043 15.9201C23.078 16.207 23.588 16.6532 23.9387 17.1951C24.353 17.7689 24.6399 18.4064 24.8312 19.0758C25.0543 19.8408 25.1499 20.6377 25.1499 21.4665C25.1499 22.3271 25.0224 23.2196 24.7355 24.0484ZM26.6162 17.8964C26.3293 17.3864 25.9149 16.9083 25.4687 16.5257C25.0543 16.0795 24.5762 15.7289 24.0662 15.4101C23.5562 15.1232 23.0143 14.8682 22.4724 14.7407C21.9305 14.5813 21.3567 14.5176 20.7511 14.5176C19.763 14.5176 18.8067 14.677 17.9142 15.0595C16.2248 15.7607 14.886 17.0995 14.121 18.757C13.7704 19.6177 13.5791 20.5421 13.5791 21.4665C13.5791 22.3908 13.7704 23.2834 14.121 24.144C14.4716 24.9728 15.0135 25.7059 15.651 26.3434C16.2885 26.9809 17.0535 27.4909 17.8823 27.8734C18.7429 28.2559 19.6992 28.4472 20.6555 28.3834C21.6117 28.4472 22.5361 28.256 23.3968 27.8416C24.2255 27.4909 24.9587 26.9809 25.5962 26.3115C26.2337 25.674 26.7118 24.9409 27.0625 24.1121C27.6362 22.6777 27.7319 21.0521 27.3175 19.5539C27.2218 18.9483 26.9668 18.4064 26.6162 17.8964Z" fill="black"/>
  <path d="M39.9402 15.1548L41.4065 16.2067V20.5737C39.1114 20.5737 36.8483 20.5737 34.617 20.5737V16.2067L36.0832 15.1548V15.0273H30.9832V15.1548L32.4176 16.2067V26.5982L30.9832 27.6819V27.8413H36.1151V27.6819L34.6488 26.5982V21.6256C36.8801 21.5937 39.1433 21.5937 41.4383 21.6256V26.5982L39.9721 27.6819V27.8413H45.104V27.6819L43.6378 26.5982C43.6059 23.3469 43.6059 19.9043 43.6378 16.2067L45.104 15.1548V15.0273H39.9721L39.9402 15.1548Z" fill="black"/>
  <path d="M184.113 22.1362L186.09 16.7174L188.193 22.1362H184.113ZM187.588 14.7729H185.739L181.308 26.4713L179.81 27.7144V27.8738H184.145V27.7144L182.519 26.4713L183.763 23.0925C185.484 23.0925 187.078 23.0925 188.576 23.0925L189.915 26.4713L188.257 27.7144V27.8738H193.899V27.7144L192.433 26.4394L187.588 14.7729Z" fill="black"/>
  <path d="M232.182 26.8219C230.301 26.8856 228.548 26.8856 226.922 26.8219C226.89 25.1325 226.89 23.4431 226.922 21.7855C227.878 21.7537 229.185 21.7537 230.97 21.7537L231.958 23.2199H232.118V19.2674H231.958L230.97 20.7655C228.675 20.7655 227.337 20.7336 226.89 20.7018C226.858 19.9686 226.858 19.2355 226.858 18.5024C226.858 17.7692 226.858 17.0361 226.89 16.2392C227.687 16.1754 228.516 16.1754 229.377 16.1754C230.237 16.1754 231.162 16.1754 232.118 16.1754L233.17 17.6417H233.297V15.0917H223.256V15.2192L224.691 16.2711C224.755 19.2674 224.755 22.7099 224.691 26.6625L223.256 27.7144V27.8738H233.552V25.0368H233.393L232.182 26.8219Z" fill="black"/>
  <path d="M243.051 21.4346H242.382C242.222 21.4346 242.063 21.4346 241.967 21.4346C241.84 21.4346 241.744 21.4346 241.617 21.4346L241.649 16.1752C241.808 16.1752 242.031 16.1433 242.222 16.1433C242.414 16.1433 242.605 16.1433 242.828 16.1433C243.019 16.1433 243.179 16.1114 243.338 16.1114H243.657C244.039 16.1114 244.454 16.1752 244.836 16.3027C245.187 16.4302 245.474 16.6214 245.729 16.8764C245.984 17.0995 246.175 17.3864 246.271 17.6733C246.398 17.9921 246.462 18.3108 246.462 18.6614C246.526 19.4583 246.175 20.2233 245.601 20.7334C244.836 21.2434 243.944 21.4984 243.051 21.4346ZM249.681 27.5547C249.586 27.4272 249.426 27.2997 249.299 27.1722C249.171 27.0128 249.044 26.8216 248.916 26.6622C248.789 26.5347 248.693 26.4072 248.598 26.2797L246.589 23.1559C246.398 22.8053 246.143 22.5184 245.856 22.2953C245.537 22.104 245.155 21.9765 244.772 21.9446C245.346 21.9128 245.92 21.8171 246.462 21.6577C246.94 21.4984 247.386 21.2752 247.801 20.9565C248.151 20.6696 248.47 20.319 248.693 19.9365C248.916 19.5221 249.012 19.0758 249.012 18.6296C249.012 18.1514 248.884 17.6733 248.629 17.2589C248.374 16.8127 248.024 16.4302 247.609 16.1433C247.131 15.8245 246.589 15.5695 246.016 15.442C245.346 15.2508 244.645 15.187 243.944 15.187H237.983V15.3145L239.417 16.3983V26.7578L237.855 27.7779V27.9372H243.083V27.7779L241.649 26.7578L241.617 22.359C241.936 22.359 242.191 22.3271 242.446 22.3271H242.987C243.211 22.3271 243.402 22.359 243.625 22.4546C243.816 22.5503 243.976 22.7096 244.071 22.9009L247.068 27.9691H250V27.7779C249.873 27.7141 249.777 27.6185 249.681 27.5547Z" fill="black"/>
  <path d="M212.451 20.4787C213.566 19.4268 214.523 18.5342 215.288 17.8011C216.084 17.0998 216.658 16.5898 217.041 16.2392L218.985 15.2192V15.0917H214.682V15.2192L215.351 16.2073C214.905 16.6855 214.427 17.1317 213.981 17.578C213.502 18.0242 213.056 18.4386 212.61 18.853C212.164 19.2674 211.717 19.6818 211.303 20.0643C210.889 20.4468 210.474 20.7974 210.092 21.0843C211.558 22.5824 213.279 24.4312 215.224 26.6944L214.682 27.7463V27.9057H219.336V27.7463L218.348 26.7263C215.574 23.8575 213.63 21.8174 212.451 20.4787Z" fill="black"/>
  <path d="M210.634 16.3028L212.132 15.2509V15.1234H206.936V15.2509L208.402 16.3028C208.434 19.7454 208.434 23.1879 208.402 26.6942L206.872 27.778V27.9374H212.164V27.778L210.634 26.6942C210.634 23.1561 210.634 19.7135 210.634 16.3028Z" fill="black"/>
  <path d="M205.47 26.7263H202.92C202.123 26.7263 201.39 26.7263 200.72 26.7263C200.689 23.1881 200.689 19.7455 200.72 16.2711L202.346 15.2511V15.0917H197.023V15.2511L198.489 16.2711C198.553 19.7136 198.553 23.1562 198.489 26.6625L197.023 27.7463V27.9057H206.841V25.0369H206.649L205.47 26.7263Z" fill="black"/>
</svg>