<svg xmlns="http://www.w3.org/2000/svg" width="192" height="43" viewBox="0 0 192 43" fill="none">
  <path d="M66.4806 2.54694C63.5315 -2.55598 46.3531 1.84427 28.1165 12.3846C9.87566 22.921 -2.51799 35.599 0.43503 40.7059C2.96979 45.0937 16.0157 42.4503 31.2116 34.9379C31.8893 34.5658 31.8432 33.7627 30.9566 34.0513C21.5912 37.5021 13.7778 37.7152 11.7575 34.0513C9.06828 29.1909 17.5801 19.3448 30.7639 12.0668C43.9479 4.7806 56.8145 2.81465 59.5037 7.67474C60.7294 9.90021 59.6084 13.171 56.7683 16.7642L56.7307 16.8185C55.6765 18.1191 56.442 18.5122 57.1951 17.8809C64.4646 11.4394 68.2541 5.61743 66.4806 2.54694Z" fill="#DE1E23"/>
  <path d="M39.1297 36.1594C37.5067 35.7202 36.1764 35.1261 35.1602 34.3776L37.0004 30.2199C38.088 30.9059 39.2426 31.4328 40.4598 31.7967C41.6812 32.161 42.9022 32.3446 44.1321 32.3446C45.3827 32.3446 46.3449 32.1689 47.0141 31.8304C47.6749 31.4832 48.0097 30.9979 48.0097 30.3747C48.0097 29.8102 47.7083 29.35 47.1061 28.9776C46.4997 28.6179 45.3617 28.2582 43.6929 27.9067C41.5889 27.4845 39.9535 26.97 38.7867 26.3551C37.6154 25.7401 36.8041 25.0165 36.3272 24.1843C35.8586 23.3477 35.6285 22.3397 35.6285 21.1475C35.6285 19.7925 36.0134 18.5711 36.7874 17.4751C37.5611 16.3793 38.6401 15.5261 40.0372 14.9112C41.4344 14.2962 43.024 13.9909 44.8224 13.9909C46.4283 13.9909 47.9845 14.2125 49.4943 14.6602C51.0086 15.1079 52.1881 15.6976 53.0455 16.4297L51.2304 20.5872C50.2801 19.9138 49.2376 19.3812 48.1351 19.0058C47.0515 18.6421 45.9685 18.4582 44.8849 18.4582C43.8225 18.4582 42.9651 18.6631 42.321 19.0689C41.6727 19.4744 41.3506 20.0265 41.3506 20.7125C41.3506 21.0889 41.4635 21.3985 41.6936 21.6495C41.9237 21.8963 42.3544 22.1473 42.9736 22.3856C43.601 22.6238 44.538 22.8791 45.7885 23.1511C47.813 23.5903 49.4023 24.1172 50.5609 24.7279C51.7155 25.3428 52.5353 26.0664 53.0122 26.8863C53.4929 27.7103 53.7358 28.6932 53.7358 29.8435C53.7358 32.0101 52.8865 33.7208 51.201 34.955C49.5113 36.197 47.1352 36.8162 44.0693 36.8162C42.4011 36.8147 40.7403 36.5939 39.1297 36.1594ZM73.4363 20.65V36.5318H67.865V34.3776C67.4133 35.1261 66.7441 35.7162 65.8699 36.1427C64.9915 36.5694 64.0293 36.7867 62.9922 36.7867C61.6327 36.7867 60.428 36.4523 59.3614 35.783C58.3033 35.1137 57.471 34.1643 56.8724 32.9219C56.283 31.6881 55.9819 30.2491 55.9819 28.6264C55.9819 26.9782 56.2872 25.5183 56.8937 24.2471C57.4959 22.9714 58.3285 21.984 59.3908 21.2731C60.4574 20.5659 61.6536 20.2108 62.9922 20.2108C64.0293 20.2108 64.9873 20.4324 65.849 20.884C66.7189 21.3317 67.3879 21.9342 67.865 22.6827V20.65H73.4363ZM67.0534 31.5333C67.5973 30.8431 67.865 29.856 67.865 28.5636C67.865 27.2463 67.5973 26.2422 67.0534 25.5435C66.514 24.8453 65.74 24.4939 64.7405 24.4939C63.7616 24.4939 62.9922 24.8578 62.4276 25.5729C61.8627 26.2923 61.5826 27.3088 61.5826 28.6264C61.5826 29.8894 61.8503 30.8683 62.3939 31.55C62.9378 32.2235 63.7197 32.5622 64.7402 32.5622C65.74 32.5622 66.514 32.2193 67.0534 31.5333ZM77.1381 20.65V20.2108C77.1381 18.0606 77.7026 16.3875 78.8111 15.1789C79.9281 13.9699 81.5508 13.3592 83.6758 13.3592C84.8887 13.3592 85.8715 13.5098 86.6161 13.7984V18.1486C86.0096 18.0023 85.5076 17.927 85.1188 17.927C84.4495 17.927 83.8974 18.1195 83.4581 18.5083C83.0232 18.8932 82.8016 19.4787 82.8016 20.2736V20.65H85.8967V24.8077H82.8016V36.5318H77.1378L77.1381 20.65ZM105.066 20.65V36.5318H99.499V34.3776C99.0431 35.1261 98.3781 35.7162 97.4954 36.1427C96.6255 36.5694 95.6633 36.7867 94.6219 36.7867C93.2667 36.7867 92.062 36.4523 90.9954 35.783C89.933 35.1137 89.105 34.1643 88.5067 32.9219C87.9127 31.6881 87.6201 30.2491 87.6201 28.6264C87.6201 26.9782 87.9212 25.5183 88.5234 24.2471C89.1256 22.9714 89.9621 21.984 91.0245 21.2731C92.0914 20.5659 93.2876 20.2108 94.6219 20.2108C95.6633 20.2108 96.6212 20.4324 97.483 20.884C98.3486 21.3317 99.0219 21.9342 99.499 22.6827V20.65H105.066ZM98.6874 31.5333C99.2313 30.8431 99.499 29.856 99.499 28.5636C99.499 27.2463 99.2313 26.2422 98.6874 25.5435C98.148 24.8453 97.3782 24.4939 96.3745 24.4939C95.3956 24.4939 94.6219 24.8578 94.0616 25.5729C93.4967 26.2923 93.2166 27.3088 93.2166 28.6264C93.2166 29.8894 93.4885 30.8683 94.0322 31.55C94.5718 32.2235 95.3537 32.5622 96.3745 32.5622C97.3782 32.5622 98.148 32.2193 98.6874 31.5333ZM120.216 20.6163V25.7778C119.321 25.3595 118.463 25.1504 117.631 25.1504C115.264 25.1504 114.08 26.288 114.08 28.5593V36.5318H108.442V25.2132C108.442 23.5068 108.358 21.984 108.195 20.6457H113.49L113.833 23.3059C114.206 22.327 114.803 21.5742 115.64 21.0512C116.468 20.5368 117.401 20.2733 118.439 20.2733C119.208 20.2733 119.798 20.3905 120.216 20.6163ZM121.889 36.5318H127.548V20.6457H121.889V36.5318ZM132.492 34.595C130.974 33.135 130.213 31.1484 130.213 28.6264C130.213 26.9573 130.577 25.4849 131.317 24.2176C132.061 22.9459 133.095 21.9591 134.433 21.2604C135.763 20.5623 137.311 20.2147 139.059 20.2147C140.222 20.2147 141.372 20.382 142.502 20.7253C143.623 21.0722 144.518 21.5366 145.187 22.1221L143.748 26.0246C143.188 25.5687 142.527 25.205 141.782 24.9331C141.03 24.6611 140.31 24.5272 139.62 24.5272C138.453 24.5272 137.558 24.8617 136.93 25.5268C136.307 26.1921 135.993 27.1874 135.993 28.4968C135.993 29.8354 136.307 30.8391 136.93 31.5208C137.558 32.1941 138.465 32.5331 139.653 32.5331C140.343 32.5331 141.054 32.3993 141.795 32.1233C142.535 31.8553 143.188 31.4871 143.748 31.0312L145.187 34.8754C144.501 35.4819 143.585 35.9502 142.456 36.285C141.314 36.6195 140.101 36.7828 138.808 36.7828C136.119 36.7828 134.015 36.0549 132.492 34.595ZM150.411 35.7827C149.098 35.118 148.086 34.1558 147.374 32.9052C146.663 31.6547 146.312 30.1865 146.312 28.4968C146.312 26.8067 146.663 25.3386 147.374 24.088C148.086 22.8375 149.098 21.8796 150.411 21.2145C151.725 20.5453 153.268 20.2108 155.042 20.2108C156.79 20.2108 158.317 20.5495 159.617 21.2312C160.922 21.9048 161.926 22.8666 162.633 24.1047C163.344 25.3431 163.695 26.8067 163.695 28.4968C163.695 30.1865 163.344 31.6547 162.633 32.8928C161.926 34.1309 160.922 35.0928 159.617 35.7663C158.317 36.4438 156.79 36.7867 155.042 36.7867C153.268 36.7867 151.725 36.452 150.411 35.7827ZM158.108 28.4968C158.108 27.1206 157.848 26.108 157.334 25.4515C156.828 24.795 156.058 24.4687 155.042 24.4687C153.996 24.4687 153.214 24.795 152.691 25.4515C152.172 26.1083 151.909 27.1206 151.909 28.4968C151.909 29.8936 152.172 30.9226 152.691 31.5794C153.214 32.236 153.996 32.5665 155.042 32.5665C157.083 32.5665 158.108 31.207 158.108 28.4968ZM190.674 21.9005C191.561 23.0257 192 24.7446 192 27.0578V36.5318H186.345V27.2165C186.345 26.2756 186.202 25.5981 185.918 25.1838C185.638 24.7655 185.161 24.5564 184.496 24.5564C183.702 24.5564 183.091 24.8532 182.652 25.4348C182.213 26.0206 181.995 26.8362 181.995 27.9025V36.5318H176.336V27.2165C176.336 26.2756 176.185 25.5981 175.897 25.1838C175.604 24.7655 175.135 24.5564 174.491 24.5564C173.701 24.5564 173.086 24.8532 172.663 25.4348C172.232 26.0206 172.019 26.8362 172.019 27.9025V36.5318H166.352V25.2132C166.352 23.5068 166.276 21.98 166.109 20.65H171.425L171.706 22.8709C172.186 22.0134 172.86 21.3566 173.722 20.8967C174.587 20.4448 175.583 20.2147 176.708 20.2147C178.983 20.2147 180.527 21.1727 181.334 23.0882C181.903 22.2101 182.651 21.5156 183.572 20.993C184.501 20.47 185.509 20.2147 186.592 20.2147C188.424 20.2147 189.783 20.7753 190.674 21.9005ZM121.889 17.9562H127.548V12.8615H121.889V17.9562Z" fill="#3AA335"/>
</svg>